<svg xmlns="http://www.w3.org/2000/svg" width="960" height="540" viewBox="0 0 960 540">
  <rect width="960" height="540" fill="#f8fafc"/>
  <rect x="24" y="24" width="912" height="492" rx="18" fill="#fff" stroke="#e2e8f0"/>
  <text x="48" y="64" font-family="system-ui" font-size="22" font-weight="700" fill="#0f172a">Acme discovery  SSO and security</text>
  <text x="48" y="88" font-family="system-ui" font-size="12" fill="#64748b">Run status  Exit shipped � 6 cited � 0 blocked � 0 dropped</text>
  <rect x="48" y="110" width="420" height="380" rx="14" fill="#f8fafc" stroke="#e2e8f0"/>
  <text x="64" y="138" font-family="system-ui" font-size="11" font-weight="700" fill="#0e7490">OBJECTIONS</text>
  <text x="64" y="168" font-family="system-ui" font-size="14" fill="#334155">Security gate: no cloud notetaker bots</text>
  <rect x="400" y="152" width="44" height="20" rx="10" fill="#0e74901f"/>
  <text x="408" y="166" font-family="system-ui" font-size="11" font-weight="700" fill="#0e7490">0:19</text>
  <text x="64" y="200" font-family="system-ui" font-size="14" fill="#334155">Implementation time  first value in two weeks</text>
  <rect x="400" y="184" width="44" height="20" rx="10" fill="#0e74901f"/>
  <text x="408" y="198" font-family="system-ui" font-size="11" font-weight="700" fill="#0e7490">0:40</text>
  <text x="64" y="248" font-family="system-ui" font-size="11" font-weight="700" fill="#be123c">ACTION ITEMS</text>
  <text x="64" y="276" font-family="system-ui" font-size="14" fill="#0f172a">Send SOC 2 report this week  @You</text>
  <rect x="400" y="260" width="44" height="20" rx="10" fill="#0e74901f"/>
  <text x="408" y="274" font-family="system-ui" font-size="11" font-weight="700" fill="#0e7490">0:51</text>
  <rect x="492" y="110" width="420" height="380" rx="14" fill="#fff" stroke="#e2e8f0"/>
  <text x="508" y="138" font-family="system-ui" font-size="11" font-weight="700" fill="#64748b">TRANSCRIPT</text>
  <rect x="508" y="152" width="388" height="64" rx="10" fill="#ecfeff" stroke="#a5f3fc"/>
  <text x="520" y="176" font-family="system-ui" font-size="13" fill="#0f172a">Priya Chen  0:19</text>
  <text x="520" y="196" font-family="system-ui" font-size="12" fill="#334155">&will not allow a cloud notetaker bot&</text>
</svg>
